HIERARCHY
ROOT Hips
{
	OFFSET 0.00000 0.00000 0.00000
	CHANNELS 6 Xposition Yposition Zposition Zrotation Yrotation Xrotation 
	JOINT LHipJoint
	{
		OFFSET 0 0 0
		CHANNELS 3 Zrotation Yrotation Xrotation
		JOINT LeftUpLeg
		{
			OFFSET 1.86795 -1.59681 0.65681
			CHANNELS 3 Zrotation Yrotation Xrotation
			JOINT LeftLeg
			{
				OFFSET 2.30491 -6.33268 0.00000
				CHANNELS 3 Zrotation Yrotation Xrotation
				JOINT LeftFoot
				{
					OFFSET 2.46780 -6.78022 0.00000
					CHANNELS 3 Zrotation Yrotation Xrotation
					JOINT LeftToeBase
					{
						OFFSET 0.07897 -0.21698 1.59652
						CHANNELS 3 Zrotation Yrotation Xrotation
						End Site
						{
							OFFSET 0.00000 -0.00000 0.82310
						}
					}
				}
			}
		}
	}
	JOINT RHipJoint
	{
		OFFSET 0 0 0
		CHANNELS 3 Zrotation Yrotation Xrotation
		JOINT RightUpLeg
		{
			OFFSET -1.93650 -1.59681 0.65681
			CHANNELS 3 Zrotation Yrotation Xrotation
			JOINT RightLeg
			{
				OFFSET -2.29410 -6.30299 0.00000
				CHANNELS 3 Zrotation Yrotation Xrotation
				JOINT RightFoot
				{
					OFFSET -2.48738 -6.83403 0.00000
					CHANNELS 3 Zrotation Yrotation Xrotation
					JOINT RightToeBase
					{
						OFFSET -0.08699 -0.23899 1.89395
						CHANNELS 3 Zrotation Yrotation Xrotation
						End Site
						{
							OFFSET -0.00000 -0.00000 0.96904
						}
					}
				}
			}
		}
	}
	JOINT LowerBack
	{
		OFFSET 0 0 0
		CHANNELS 3 Zrotation Yrotation Xrotation
		JOINT Spine
		{
			OFFSET 0.03629 1.99740 -0.07548
			CHANNELS 3 Zrotation Yrotation Xrotation
			JOINT Spine1
			{
				OFFSET 0.03970 1.94298 0.17218
				CHANNELS 3 Zrotation Yrotation Xrotation
				JOINT Neck
				{
					OFFSET 0 0 0
					CHANNELS 3 Zrotation Yrotation Xrotation
					JOINT Neck1
					{
						OFFSET -0.05054 1.79469 0.04241
						CHANNELS 3 Zrotation Yrotation Xrotation
						JOINT Head
						{
							OFFSET 0.05195 1.78475 -0.22133
							CHANNELS 3 Zrotation Yrotation Xrotation
							End Site
							{
								OFFSET 0.02420 1.80711 -0.07950
							}
						}
					}
				}
				JOINT LeftShoulder
				{
					OFFSET 0 0 0
					CHANNELS 3 Zrotation Yrotation Xrotation
					JOINT LeftArm
					{
						OFFSET 2.92134 1.19850 0.36056
						CHANNELS 3 Zrotation Yrotation Xrotation
						JOINT LeftForeArm
						{
							OFFSET 4.84137 -0.00000 0.00000
							CHANNELS 3 Zrotation Yrotation Xrotation
							JOINT LeftHand
							{
								OFFSET 3.24520 -0.00000 -0.00000
								CHANNELS 3 Zrotation Yrotation Xrotation
								JOINT LeftFingerBase
								{
									OFFSET 0 0 0
									CHANNELS 3 Zrotation Yrotation Xrotation
									JOINT LeftHandIndex1
									{
										OFFSET 0.52122 -0.00000 0.00000
										CHANNELS 3 Zrotation Yrotation Xrotation
										End Site
										{
											OFFSET 0.42022 -0.00000 0.00000
										}
									}
								}
								JOINT LThumb
								{
									OFFSET 0 0 0
									CHANNELS 3 Zrotation Yrotation Xrotation
									End Site
									{
										OFFSET 0.42664 -0.00000 0.42664
									}
								}
							}
						}
					}
				}
				JOINT RightShoulder
				{
					OFFSET 0 0 0
					CHANNELS 3 Zrotation Yrotation Xrotation
					JOINT RightArm
					{
						OFFSET -2.84327 1.20795 0.50191
						CHANNELS 3 Zrotation Yrotation Xrotation
						JOINT RightForeArm
						{
							OFFSET -4.72284 -0.00000 0.00000
							CHANNELS 3 Zrotation Yrotation Xrotation
							JOINT RightHand
							{
								OFFSET -3.23459 -0.00000 0.00000
								CHANNELS 3 Zrotation Yrotation Xrotation
								JOINT RightFingerBase
								{
									OFFSET 0 0 0
									CHANNELS 3 Zrotation Yrotation Xrotation
									JOINT RightHandIndex1
									{
										OFFSET -0.30742 -0.00000 0.00000
										CHANNELS 3 Zrotation Yrotation Xrotation
										End Site
										{
											OFFSET -0.24785 -0.00000 0.00000
										}
									}
								}
								JOINT RThumb
								{
									OFFSET 0 0 0
									CHANNELS 3 Zrotation Yrotation Xrotation
									End Site
									{
										OFFSET -0.25163 -0.00000 0.25163
									}
								}
							}
						}
					}
				}
			}
		}
	}
}
MOTION
Frames: 8
Frame Time: 0.0625
0.00 0.00 0.00 0 0 0 0 0 0 -21 0 0 0 0 0 0 0 0 0 0 0 0 0 0 21 0 0 0 0 0 0 0 0 0 0 0 0 0 0 0 0 0 0 0 0 0 0 -16 0 0 21 0 0 11 0 0 0 -8 0 0 0 0 0 0 0 0 0 0 0 0 0 0 0 0 0 0 0 0 8 0 0 0 0 0 0 0 0 0 0 0 0 0 0 0 0 0
0.00 0.00 0.00 -1.0581 -34.8117 11.3415 0.0000 0.0000 0.0000 -25.3826 -43.0078 -0.8519 1.0834 6.6155 18.5811 1.8025 28.6414 -47.4171 5.0146 13.4002 40.8858 0.0000 0.0000 0.0000 16.5955 30.4255 -12.0253 -1.2915 -7.2006 20.3109 1.5890 -31.5893 -36.6409 -4.1166 -12.3140 36.8520 -0.0669 0.5529 -6.2115 1.4949 0.6911 -6.4972 1.6045 0.3506 -3.2495 -4.2647 -0.0650 -4.6285 7.3076 -1.0201 18.1756 2.9750 -0.2806 6.3009 -0.0000 -0.0000 0.0000 -87.1052 11.4974 58.4992 58.9282 -56.0175 -33.4508 -0.0000 0.0000 -14.2677 -23.2729 47.9013 -17.6998 -7.1250 0.0000 -0.0000 -76.8135 62.0516 -44.2932 -0.0000 -0.0000 0.0000 80.0490 -10.8064 54.8780 -36.6231 45.9369 -15.9686 0.0000 -0.0000 -45.6167 -20.9617 20.2750 -7.5620 7.1250 -0.0000 -0.0000 4.7976 -8.4580 4.0544
0.00 0.00 0.00 0.2809 -34.8627 11.6712 0.0000 0.0000 0.0000 -21.2767 -30.3692 -8.0216 1.0430 6.4948 18.2271 -0.7669 26.2339 -32.3423 1.8857 8.6239 24.6257 0.0000 0.0000 0.0000 17.8842 29.6446 -13.7227 -1.3611 -7.3845 20.8597 3.0362 -33.5627 -31.8457 -3.5616 -11.5530 34.1685 -0.3278 0.7304 -1.5671 0.9395 0.9679 -5.3938 1.1304 0.5025 -4.7060 -1.9953 2.5521 -8.5876 4.5294 2.9970 15.4729 1.9868 1.6674 5.9886 -0.0000 -0.0000 0.0000 -89.7659 4.7209 42.5567 26.7471 -37.9369 -9.3432 -0.0000 -0.0000 4.7472 -22.0302 42.5534 -15.3043 -7.1250 0.0000 -0.0000 -67.5826 59.9926 -33.1027 -0.0000 -0.0000 0.0000 86.0139 -1.1111 42.7440 -26.3766 37.5782 -9.1164 0.0000 -0.0000 -43.7913 -16.2103 18.2435 -5.2003 7.1250 -0.0000 -0.0000 7.7641 -11.1679 6.1717
0.00 0.00 0.00 -0.7026 -34.2925 13.9353 0.0000 0.0000 0.0000 -18.6520 -17.0287 -16.5027 2.0799 9.0305 25.8907 0.3336 15.8742 -25.5325 0.0000 -0.0198 -0.0545 0.0000 0.0000 0.0000 21.1404 21.2801 -18.5979 -2.2038 -9.2783 26.6698 3.3878 -31.5437 -21.7423 -0.4976 -4.5226 12.5517 1.5033 0.7252 -0.9929 2.2218 1.0458 -5.3845 1.4238 0.4906 -5.0199 -1.4880 2.1751 -8.1617 3.5674 2.7223 9.1901 1.6524 1.4689 4.4465 -0.0000 0.0000 0.0000 -58.7108 30.2035 -14.9764 16.9484 -26.7897 -4.0641 -0.0000 -0.0000 0.8651 -23.1720 39.9965 -15.3819 -7.1250 0.0000 -0.0000 -64.9591 58.3539 -28.5389 -0.0000 0.0000 0.0000 54.4091 -25.4485 -5.1041 -17.1339 27.0340 -4.1480 0.0000 -0.0000 -49.5117 -18.5082 20.0251 -6.5393 7.1250 -0.0000 -0.0000 6.3568 -9.0601 5.3102
0.00 0.00 0.00 0.4858 -36.0974 14.8571 0.0000 0.0000 0.0000 -21.3431 -16.2497 -16.5060 1.8983 8.6509 24.7093 0.5119 15.1538 -26.1393 0.0092 0.6203 1.7046 0.0000 0.0000 0.0000 17.6733 12.5467 -33.0530 -5.4218 -13.8437 42.6147 1.2442 -20.2687 -14.4489 -0.0683 -1.6857 4.6379 1.2280 0.9099 -0.5698 2.3913 1.2936 -4.6363 1.7398 0.6336 -4.4897 -1.9291 3.0331 -7.5752 3.2340 4.1422 -1.4768 1.4455 2.1152 0.7003 -0.0000 0.0000 0.0000 -43.1384 54.4283 -52.3359 11.5088 -19.0640 -1.9389 -0.0000 -0.0000 17.1196 -1.9344 62.6234 -1.7179 -7.1250 0.0000 -0.0000 -82.9631 -71.5028 101.9586 -0.0000 0.0000 0.0000 38.8059 -56.6074 -35.8018 -11.7826 19.4778 -2.0292 0.0000 -0.0000 -48.2750 -43.7688 16.1362 -14.9079 7.1250 -0.0000 -0.0000 -10.3470 -8.4330 -8.8674
0.00 0.00 0.00 1.7597 -35.2622 14.9926 0.0000 0.0000 0.0000 -22.3173 -14.2090 -15.6659 1.2959 7.2125 20.3465 0.3070 13.3407 -22.2478 0.0180 -0.8652 -2.3780 0.0000 0.0000 0.0000 6.5146 23.6546 -37.3533 -2.5005 -9.8388 28.4562 1.5329 -21.3120 -9.5120 -0.4197 -4.1581 11.5220 1.1350 -0.5391 5.2583 1.8505 -0.5212 -4.1048 1.3624 -0.2686 -7.2390 -2.3901 3.9157 -8.2260 4.0793 5.4805 -8.0500 1.7498 2.7341 -1.3360 0.0000 0.0000 0.0000 -20.4502 42.2501 -50.6385 10.3631 -17.3056 -1.5813 -0.0000 -0.0000 20.0712 5.8778 76.4314 5.7149 -7.1250 0.0000 -0.0000 -125.1201 -69.1850 144.6439 0.0000 0.0000 0.0000 18.5240 -52.5927 -37.4718 -11.4749 19.0124 -1.9278 0.0000 -0.0000 -52.8058 -63.7424 22.8202 -38.1744 7.1250 -0.0000 -0.0000 -19.8597 11.3675 -24.7566
0.00 0.00 0.00 1.5065 -33.9431 13.5130 0.0000 0.0000 0.0000 -21.5734 -13.6214 -12.8938 1.1963 6.9400 19.5376 0.2083 13.5175 -21.4860 0.1785 -2.7211 -7.5032 0.0000 0.0000 0.0000 2.1570 32.3079 -32.9276 -1.5960 -7.9683 22.6177 2.7929 -29.8979 -0.2435 -0.0244 -1.0095 2.7748 0.6212 -0.7791 4.8250 1.1479 -0.9350 -4.6829 0.9629 -0.4664 -7.6012 -2.1950 3.1901 -7.9102 7.0119 4.3821 -2.6603 2.7199 2.2666 0.3001 -0.0000 -0.0000 0.0000 -16.1708 -1.3550 -49.1090 9.6031 -16.1164 -1.3627 -0.0000 -0.0000 23.9976 -2.9761 71.8162 -2.8277 -7.1250 0.0000 -0.0000 -109.7235 -70.4317 130.2352 -0.0000 -0.0000 0.0000 16.5924 -14.8650 -28.1995 -11.4901 19.0356 -1.9328 0.0000 -0.0000 -54.8034 -56.9982 17.6471 -25.0223 7.1250 -0.0000 -0.0000 -17.7363 -0.9129 -18.3585
0.00 0.00 0.00 2.7644 -34.8569 10.3778 0.0000 0.0000 0.0000 -22.5782 -11.6681 -9.2974 1.1593 6.8356 19.2294 0.0773 14.6120 -21.5674 0.3296 -3.6896 -10.2051 0.0000 0.0000 0.0000 6.8108 26.6050 -30.8743 -1.8053 -8.4483 24.0841 1.9561 -25.0980 -1.0747 -0.1451 2.4548 -6.7642 -0.9900 -0.3985 3.6271 0.4504 -0.6025 -5.1443 1.0879 -0.2386 -7.3926 -3.1034 2.1423 -8.6316 8.4039 2.6528 4.4473 3.4983 1.5659 2.8364 -0.0000 -0.0000 0.0000 -26.9213 -35.8206 -15.1020 11.7923 -19.4925 -2.0325 -0.0000 -0.0000 3.4507 -26.7552 53.2908 -22.0071 -7.1250 0.0000 -0.0000 -88.3735 62.6955 -57.1071 -0.0000 -0.0000 0.0000 24.9815 23.9494 -11.2106 -11.4360 18.9535 -1.9151 0.0000 -0.0000 -51.9281 -34.5490 10.8182 -7.3638 7.1250 -0.0000 -0.0000 -5.1949 -16.9518 -3.4689
